HIERARCHY
ROOT Hips
{
  OFFSET 36.6405 77.2804 -140.061
  CHANNELS 6 Xposition Yposition Zposition Zrotation Xrotation Yrotation
  JOINT RightUpLeg
  {
    OFFSET -8.9458 -8.66707 0.101652
    CHANNELS 3 Zrotation Xrotation Yrotation
    JOINT RightLeg
    {
      OFFSET 0 -44.4227 1.3727
      CHANNELS 3 Zrotation Xrotation Yrotation
      JOINT RightFoot
      {
        OFFSET 0.253549 -42.0924 -1.46059
        CHANNELS 3 Zrotation Xrotation Yrotation
        JOINT RightToes
        {
          OFFSET 0.04 -4.41509 8.4991
          CHANNELS 3 Zrotation Xrotation Yrotation
          End Site
          {
            OFFSET -0.08 -0.137448 9.77979
          }
        }
      }
    }
  }
  JOINT Spine
  {
    OFFSET 0 11.8905 0
    CHANNELS 3 Zrotation Xrotation Yrotation
    JOINT Spine1
    {
      OFFSET 0 25.6574 0.127663
      CHANNELS 3 Zrotation Xrotation Yrotation
      JOINT HEad
      {
        OFFSET 0 8.73416 0.011341
        CHANNELS 3 Zrotation Xrotation Yrotation
        End Site
        {
          OFFSET -0.29 12.7742 2.51395
        }
      }
      JOINT LeftShoulder1
      {
        OFFSET 8.99 -0.362252 -0.22
        CHANNELS 3 Zrotation Xrotation Yrotation
        JOINT LeftArm
        {
          OFFSET 10.2827 -0.00338 0.322123
          CHANNELS 3 Zrotation Xrotation Yrotation
          JOINT LeftForeArm
          {
            OFFSET 32.7669 0.099144 -1.42434
            CHANNELS 3 Zrotation Xrotation Yrotation
            JOINT LeftHand
            {
              OFFSET 27.5643 0.085362 1.02216
              CHANNELS 3 Zrotation Xrotation Yrotation
              End Site
              {
                OFFSET 16.7443 -0.6 1.50291
              }
            }
          }
        }
      }
      JOINT RightShoulder
      {
        OFFSET -8.99 -0.362252 -0.22
        CHANNELS 3 Zrotation Xrotation Yrotation
        JOINT RightArm
        {
          OFFSET -10.2827 -0.00338 0.322123
          CHANNELS 3 Zrotation Xrotation Yrotation
          JOINT RightForeArm
          {
            OFFSET -32.8971 0.099144 -1.42434
            CHANNELS 3 Zrotation Xrotation Yrotation
            JOINT RightHand
            {
              OFFSET -27.4921 0.085362 1.02216
              CHANNELS 3 Zrotation Xrotation Yrotation
              End Site
              {
                OFFSET -16.6312 -0.6 1.50291
              }
            }
          }
        }
      }
    }
  }
  JOINT LeftUpLeg
  {
    OFFSET 8.9458 -8.66707 0.101652
    CHANNELS 3 Zrotation Xrotation Yrotation
    JOINT LeftLeg
    {
      OFFSET 0 -44.4227 1.3727
      CHANNELS 3 Zrotation Xrotation Yrotation
      JOINT LeftFoot
      {
        OFFSET -0.253549 -42.0924 -1.46059
        CHANNELS 3 Zrotation Xrotation Yrotation
        JOINT LeftToes
        {
          OFFSET -0.04 -4.41509 8.4991
          CHANNELS 3 Zrotation Xrotation Yrotation
          End Site
          {
            OFFSET 0.08 -0.047448 9.77979
          }
        }
      }
    }
  }
}
MOTION
Frames:	15
Frame Time:	0.0166667
14.0287 61.915 -131.527 4.2119 -9.29364 19.5715 -32.4457 -47.9052 -23.0498 -96.8899 69.2188 74.4522 -24.3523 16.3149 6.06956 0.0462048 0.000533403 0.662642 -11.854 43.6065 5.27869 -0.000283939 0.00783015 -0.00886623 3.22092 -7.1917 -9.37436 4.77083e-015 -3.18055e-015 -3.18055e-015 -100.214 -2.4935 -105.421 -17.7299 62.69 -81.6466 38.8511 6.05988 -22.2966 26.6576 12.0915 2.00628 70.7484 -28.7747 78.7924 16.7969 59.0391 113.98 -42.9382 18.3572 -2.64734 16.0426 -65.0919 13.378 -0.728513 76.7161 -17.9603 77.7988 20.7331 -13.4267 2.44436e-008 1.56001e-007 -4.85536e-009 
12.7579 60.1064 -131.811 4.35252 -10.2262 20.965 -30.846 -47.7017 -15.9253 -96.6002 72.4486 78.6822 -22.7573 17.4059 5.46145 0.0462048 0.000533403 0.662642 -9.01699 44.9089 3.10922 -0.000351305 0.011317 -0.00782252 2.03611 -8.14165 -9.32963 1.59028e-015 1.27222e-014 3.18055e-015 -102.7 -7.13708 -106.727 -23.0867 63.0516 -79.8167 39.3754 6.16552 -22.3312 25.0107 12.4197 2.8137 71.5029 -29.7394 78.8598 18.6324 60.3679 111.876 -43.1272 18.3847 -2.3013 15.4333 -66.4715 12.1699 2.36921 78.4555 -22.3239 78.5566 20.2491 -13.1373 2.44436e-008 1.56001e-007 -4.85536e-009 
11.4457 58.4333 -132.038 4.58304 -10.9237 22.0414 -28.9213 -47.6423 -7.50892 -97.1921 75.9547 84.3159 -16.8581 18.4604 3.99268 0.0462048 0.000533403 0.662642 -6.35401 45.5866 1.10632 -0.000572303 0.0156501 -0.00687473 0.793359 -8.81885 -9.15933 3.18055e-015 -9.54166e-015 -0 -104.829 -9.93022 -107.196 -25.786 63.586 -78.8343 39.9168 6.5885 -22.4942 23.2953 12.93 3.56235 72.0961 -30.5501 78.84 20.3404 61.4455 109.865 -43.1088 18.4493 -2.02742 15.1711 -67.7184 11.4715 6.77261 79.762 -27.8032 78.8874 19.7481 -12.7477 2.44436e-008 1.56001e-007 -4.85536e-009 
9.60756 56.6425 -131.986 4.92989 -11.4301 22.8616 -27.5696 -48.2094 1.85222 -109.606 80.4178 100.283 -4.0745 19.3073 1.03272 0.0462048 0.000533403 0.662642 -3.98651 45.7749 -0.645362 -0.000897695 0.0183392 -0.00602899 -0.473001 -10.1792 -7.57988 -1.59028e-015 6.36111e-015 -0 -108.793 -15.1025 -107.893 -32.0707 64.9153 -76.7364 43.9371 25.2121 -21.3729 21.4468 13.4921 4.3988 72.5012 -31.1921 78.5785 21.5674 62.2871 108.266 -42.7974 18.6734 -1.97623 17.3906 -68.3359 12.395 7.59428 80.5306 -30.2525 78.5143 19.1748 -12.1775 2.44436e-008 1.56001e-007 -4.85535e-009 
7.46165 54.8655 -131.666 5.3662 -11.7865 23.4547 -25.365 -49.4992 11.0326 -144.541 82.9889 137.613 3.21465 20.1476 -0.919181 0.0462048 0.000533403 0.662642 -1.99577 45.5898 -2.06384 -0.00127779 0.0202401 -0.00529141 -1.77765 -12.0821 -4.72891 -1.59028e-015 3.18055e-015 -0 -111.799 -18.1922 -107.784 -34.6854 66.1127 -76.0002 44.0667 15.2228 -22.5701 19.6248 14.1085 5.13348 72.7056 -31.5364 78.2125 22.3329 62.9187 107.077 -42.576 18.9438 -2.03615 21.7863 -68.6393 14.6277 4.55493 81.1804 -29.1758 77.3891 18.5115 -11.4215 2.44436e-008 1.56001e-007 -4.85536e-009 
4.99545 53.1922 -131.068 5.87573 -12.0334 23.8498 -22.7766 -51.2982 20.1626 176.088 81.0988 178.434 11.5233 20.5784 -3.09065 0.0462048 0.000533403 0.662642 -0.424571 45.1286 -3.09303 -0.00166302 0.0215458 -0.00466811 -2.98245 -13.5829 -2.07715 -1.59028e-015 3.18055e-015 3.18055e-015 -114.182 -20.2805 -106.954 -26.2333 65.7435 -80.9636 42.8792 16.0584 -22.7299 17.9229 14.7527 5.74726 72.7071 -31.561 77.7912 22.662 63.3572 106.209 -42.2273 19.2631 -2.25226 27.4824 -68.5127 17.422 -2.5961 81.4987 -24.1398 75.5804 17.8053 -10.5563 2.44436e-008 1.56001e-007 -4.85536e-009 
1.92674 51.6049 -130.14 6.47755 -12.2017 24.0925 -20.751 -53.0501 27.4602 160.701 77.318 -164.861 18.9238 20.8762 -5.09388 0.0462048 0.000533403 0.662642 0.783338 44.4606 -3.76075 -0.0021295 0.0224778 -0.00416518 -4.56781 -15.3256 1.67034 0 3.18055e-015 -0 -119.147 -25.1785 -106.814 -26.0562 67.3342 -83.2092 42.2877 7.79203 -24.2338 16.5442 15.3363 5.86713 70.5995 -27.3938 77.7798 20.1083 61.0795 105.037 -41.7426 19.6795 -2.54247 33.2672 -68.049 19.6971 -2.56718 80.8498 -25.8118 71.414 17.0152 -9.34368 2.44436e-008 1.56001e-007 -4.85536e-009 
-1.39167 50.1153 -129.004 7.13709 -12.3178 24.2115 -18.851 -55.0212 33.03 156.026 73.3547 -159.072 23.8176 21.1659 -6.5955 0.0462048 0.000533403 0.662642 1.65649 43.6468 -4.06947 -0.00318724 0.0231375 -0.00378876 -6.01433 -16.6485 5.06272 3.18055e-015 3.18055e-015 -0 -122.729 -28.451 -106.078 -25.3583 68.651 -85.3486 42.3337 9.67956 -23.7631 15.3562 15.9578 5.8879 68.9191 -24.8004 77.4433 18.3322 59.6876 104.773 -41.3186 20.1367 -3.10752 37.9331 -67.3128 20.3632 -0.387965 79.3196 -28.8294 65.6909 16.1606 -8.01413 2.44436e-008 1.56001e-007 -4.85536e-009 
-4.82897 48.6459 -127.664 7.84847 -12.3921 24.2359 -17.1222 -57.2131 37.0809 155.702 69.5773 -157.915 27.5511 21.3628 -7.73362 0.0462048 0.000533403 0.662642 2.20956 42.7305 -4.0413 -0.00445966 0.0236264 -0.00354495 -7.34837 -17.5751 8.11435 -3.18055e-015 3.18055e-015 -0 -125.377 -30.9864 -104.934 -24.8846 69.5621 -87.0625 42.5168 5.73801 -24.8624 14.3486 16.6137 5.8394 67.5624 -23.0742 76.932 17.0058 58.8727 104.875 -40.7739 20.439 -3.7113 41.4207 -66.2398 19.5461 -4.56234 77.7371 -25.113 60.3945 15.2875 -6.87474 2.44436e-008 1.56001e-007 -4.85536e-009 
-8.70916 47.3697 -126.124 8.6411 -12.4228 24.2128 -15.2384 -59.6794 39.9176 156.958 65.9367 -158.965 30.2379 21.6366 -8.60354 0.0462048 0.000533403 0.662642 2.51826 41.7338 -3.77082 -0.005885 0.024046 -0.00343986 -9.49777 -18.2692 11.9728 -0 0 3.18055e-015 -130.823 -36.2475 -105.064 -30.2958 72.0348 -86.1599 42.9148 7.44819 -24.4669 13.5024 17.2384 5.52277 64.4548 -18.1182 77.2169 14.3334 55.6354 103.676 -40.1086 20.5041 -4.28923 43.5557 -64.7426 17.1637 -4.09647 74.6013 -24.9103 53.2445 14.3471 -5.64599 2.44436e-008 1.56001e-007 -4.85536e-009 
-12.5591 46.1752 -124.441 9.48328 -12.4192 24.1724 -13.8425 -62.4768 41.0611 156.692 61.8327 -157.596 30.1928 22.0332 -9.01968 0.0462048 0.000533403 0.662642 2.61859 40.6773 -3.28992 -0.0074015 0.0244977 -0.00347961 -11.4733 -18.6322 15.4227 -1.59028e-015 3.18055e-015 -6.36111e-015 -134.511 -39.8938 -104.618 -34.4045 73.4365 -84.571 43.0351 5.45618 -25.4935 12.7139 17.8863 5.26313 62.261 -15.1631 77.0038 12.7367 53.83 103.261 -39.6541 20.7877 -4.82666 44.826 -62.8046 13.8864 -6.19416 71.5551 -21.7561 46.4427 13.2758 -4.56693 2.44436e-008 1.56001e-007 -4.85536e-009 
-16.349 45.2447 -122.708 10.3807 -12.375 24.1417 -13.2554 -65.0678 40.4407 158.18 58.7247 -159.069 30.0745 22.2502 -9.14351 0.0462048 0.000533403 0.662642 2.50476 39.5708 -2.61935 -0.00894738 0.025083 -0.00367031 -13.2894 -18.6734 18.4896 1.59028e-015 -3.18055e-015 -3.18055e-015 -136.838 -42.6517 -103.579 -37.4516 74.0626 -82.8664 43.1878 6.49099 -25.5539 12.0958 18.5558 5.02297 60.6354 -13.3702 76.5114 11.8237 52.9367 103.126 -39.1245 20.8644 -5.23575 45.4112 -60.3302 10.096 -8.19659 68.1053 -18.3605 39.6044 12.197 -3.6456 2.44436e-008 1.56001e-007 -4.85536e-009 
-20.3107 44.7677 -120.913 11.3703 -12.2619 24.1901 -13.6049 -67.2662 38.1475 159.726 56.3384 -161.793 29.5291 22.2639 -8.96819 0.0462048 0.000533403 0.662642 2.17384 38.395 -1.78427 -0.0104609 0.0259033 -0.00401808 -15.9735 -18.2369 22.1214 -0 -3.18055e-015 -0 -138.143 -45.0123 -101.705 -37.1105 70.4858 -80.863 39.558 3.70629 -29.1213 11.6692 19.1691 4.85654 59.2332 -12.3496 75.8483 11.5523 52.4002 102.99 -21.6439 11.6024 -3.31671 45.4081 -57.0464 6.15029 -8.56784 62.5988 -14.7886 32.3429 11.1077 -2.80076 2.44436e-008 1.56001e-007 -4.85536e-009 
-24.0651 44.5463 -119.128 12.4206 -12.0827 24.3277 -15.0261 -68.831 34.0444 161.066 54.6935 -165.22 27.771 21.9807 -8.32551 0.0462048 0.000533403 0.662642 1.66109 37.1531 -0.803436 -0.0118802 0.0270601 -0.00452903 -18.3581 -17.5775 25.3215 -1.59028e-015 0 -0 -138.57 -47.061 -99.1613 -36.5058 68.8349 -80.6288 37.7853 3.54337 -30.6444 11.4413 19.8173 4.58469 57.9817 -11.7451 75.2729 11.7199 52.0559 102.716 -31.1983 14.9538 -5.03832 45.1906 -53.2997 2.70981 -8.11047 57.3552 -11.9376 25.1228 9.84522 -2.08907 2.44436e-008 1.56001e-007 -4.85536e-009 
-27.6117 44.6064 -117.366 13.5227 -11.8378 24.5511 -17.3033 -69.6056 28.5291 162.44 53.8147 -169.324 25.9171 21.2886 -7.47457 0.0462048 0.000533403 0.662642 0.968424 35.8532 0.316123 -0.0131904 0.0290202 -0.00610895 -20.4329 -16.7057 28.1152 -3.53113e-031 6.36111e-015 3.18055e-015 -138.243 -48.7954 -96.2211 -35.8963 68.1495 -81.1944 37.1813 2.92201 -31.7335 11.5299 20.516 4.12414 56.7907 -11.1674 74.8109 11.7995 52.0458 102.478 -25.0839 14.0249 -4.55789 44.7227 -49.1551 0.0575195 -6.70574 52.0072 -10.034 17.864 8.57729 -1.55098 2.44436e-008 1.56001e-007 -4.85536e-009 
